<svg width="49" height="48" viewBox="0 0 49 48" fill="none" xmlns="http://www.w3.org/2000/svg">
<g id="material-symbols:lock">
<path id="Vector" d="M12.5 44C11.4 44 10.458 43.608 9.674 42.824C8.89 42.04 8.49867 41.0987 8.5 40V20C8.5 18.9 8.892 17.958 9.676 17.174C10.46 16.39 11.4013 15.9987 12.5 16H14.5V12C14.5 9.23333 15.4753 6.87467 17.426 4.924C19.3767 2.97333 21.7347 1.99867 24.5 2C27.2667 2 29.6253 2.97533 31.576 4.926C33.5267 6.87667 34.5013 9.23467 34.5 12V16H36.5C37.6 16 38.542 16.392 39.326 17.176C40.11 17.96 40.5013 18.9013 40.5 20V40C40.5 41.1 40.108 42.042 39.324 42.826C38.54 43.61 37.5987 44.0013 36.5 44H12.5ZM24.5 34C25.6 34 26.542 33.608 27.326 32.824C28.11 32.04 28.5013 31.0987 28.5 30C28.5 28.9 28.108 27.958 27.324 27.174C26.54 26.39 25.5987 25.9987 24.5 26C23.4 26 22.458 26.392 21.674 27.176C20.89 27.96 20.4987 28.9013 20.5 30C20.5 31.1 20.892 32.042 21.676 32.826C22.46 33.61 23.4013 34.0013 24.5 34ZM18.5 16H30.5V12C30.5 10.3333 29.9167 8.91667 28.75 7.75C27.5833 6.58333 26.1667 6 24.5 6C22.8333 6 21.4167 6.58333 20.25 7.75C19.0833 8.91667 18.5 10.3333 18.5 12V16Z" fill="#534C49"/>
</g>
</svg>
