<svg width="16" height="16" viewBox="0 0 16 16" fill="none" xmlns="http://www.w3.org/2000/svg">
<path d="M7.99967 8.88867L1.85101 12.988C1.80081 13.0214 1.74249 13.0406 1.68227 13.0435C1.62204 13.0463 1.56216 13.0328 1.50901 13.0044C1.45585 12.9759 1.41141 12.9336 1.38042 12.8818C1.34942 12.8301 1.33304 12.771 1.33301 12.7107V3.28934C1.33304 3.22904 1.34942 3.16989 1.38042 3.11817C1.41141 3.06645 1.45585 3.0241 1.50901 2.99564C1.56216 2.96719 1.62204 2.95368 1.68227 2.95656C1.74249 2.95944 1.80081 2.9786 1.85101 3.012L7.99967 7.11067V3.28934C7.99971 3.22904 8.01609 3.16989 8.04708 3.11817C8.07808 3.06645 8.12252 3.0241 8.17567 2.99564C8.22883 2.96719 8.28871 2.95368 8.34894 2.95656C8.40916 2.95944 8.46748 2.9786 8.51767 3.012L15.5837 7.72267C15.6293 7.75311 15.6668 7.79435 15.6926 7.84273C15.7185 7.89111 15.7321 7.94513 15.7321 8C15.7321 8.05488 15.7185 8.1089 15.6926 8.15728C15.6668 8.20566 15.6293 8.2469 15.5837 8.27734L8.51767 12.988C8.46748 13.0214 8.40916 13.0406 8.34894 13.0435C8.28871 13.0463 8.22883 13.0328 8.17567 13.0044C8.12252 12.9759 8.07808 12.9336 8.04708 12.8818C8.01609 12.8301 7.99971 12.771 7.99967 12.7107V8.88867Z" fill="current"/>
</svg>
