<svg width="32" height="32" viewBox="0 0 32 32" fill="none" xmlns="http://www.w3.org/2000/svg">
<g id="Extension" clip-path="url(#clip0_107_2370)">
<path id="Vector" d="M27.3332 14.6668H25.3332V9.3335C25.3332 7.86683 24.1332 6.66683 22.6665 6.66683H17.3332V4.66683C17.3332 2.82683 15.8398 1.3335 13.9998 1.3335C12.1598 1.3335 10.6665 2.82683 10.6665 4.66683V6.66683H5.33317C3.8665 6.66683 2.67984 7.86683 2.67984 9.3335V14.4002H4.6665C6.65317 14.4002 8.2665 16.0135 8.2665 18.0002C8.2665 19.9868 6.65317 21.6002 4.6665 21.6002H2.6665V26.6668C2.6665 28.1335 3.8665 29.3335 5.33317 29.3335H10.3998V27.3335C10.3998 25.3468 12.0132 23.7335 13.9998 23.7335C15.9865 23.7335 17.5998 25.3468 17.5998 27.3335V29.3335H22.6665C24.1332 29.3335 25.3332 28.1335 25.3332 26.6668V21.3335H27.3332C29.1732 21.3335 30.6665 19.8402 30.6665 18.0002C30.6665 16.1602 29.1732 14.6668 27.3332 14.6668Z" fill="current"/>
</g>
<defs>
<clipPath id="clip0_107_2370">
<rect width="32" height="32" fill="white"/>
</clipPath>
</defs>
</svg>
