<svg width="24" height="24" viewBox="0 0 24 24" fill="none" xmlns="http://www.w3.org/2000/svg">
<g id="ion:sad">
<path id="Vector" d="M19.4249 4.57588C18.4517 3.59299 17.2938 2.81209 16.0178 2.27803C14.7419 1.74398 13.3729 1.4673 11.9897 1.4639C10.6065 1.46049 9.23622 1.73043 7.95763 2.25819C6.67904 2.78596 5.51734 3.56116 4.53925 4.53925C3.56116 5.51734 2.78596 6.67904 2.25819 7.95763C1.73043 9.23622 1.46049 10.6065 1.4639 11.9897C1.4673 13.3729 1.74398 14.7419 2.27803 16.0178C2.81209 17.2938 3.59299 18.4517 4.57588 19.4249C5.54915 20.4078 6.70703 21.1887 7.983 21.7228C9.25897 22.2569 10.6279 22.5335 12.0111 22.5369C13.3943 22.5403 14.7646 22.2704 16.0432 21.7426C17.3218 21.2149 18.4835 20.4397 19.4616 19.4616C20.4397 18.4835 21.2149 17.3218 21.7426 16.0432C22.2704 14.7646 22.5403 13.3943 22.5369 12.0111C22.5335 10.6279 22.2569 9.25897 21.7228 7.983C21.1887 6.70703 20.4078 5.54915 19.4249 4.57588ZM8.62541 9.75041C8.84792 9.75041 9.06543 9.81639 9.25043 9.94001C9.43544 10.0636 9.57963 10.2393 9.66478 10.4449C9.74993 10.6505 9.77221 10.8767 9.7288 11.0949C9.68539 11.3131 9.57824 11.5136 9.42091 11.6709C9.26358 11.8282 9.06312 11.9354 8.84489 11.9788C8.62666 12.0222 8.40046 11.9999 8.1949 11.9148C7.98933 11.8296 7.81363 11.6854 7.69001 11.5004C7.56639 11.3154 7.50041 11.0979 7.50041 10.8754C7.50004 10.7276 7.52889 10.5811 7.58529 10.4445C7.6417 10.3078 7.72455 10.1836 7.82909 10.0791C7.93363 9.97455 8.0578 9.8917 8.19446 9.83529C8.33112 9.77889 8.47757 9.75004 8.62541 9.75041ZM7.51588 16.7737C8.07838 14.8846 9.86901 13.5004 11.9981 13.5004C14.1271 13.5004 15.9178 14.8846 16.4845 16.7737C16.5003 16.8299 16.5028 16.8891 16.4918 16.9464C16.4807 17.0038 16.4564 17.0577 16.4208 17.104C16.3852 17.1503 16.3393 17.1877 16.2867 17.2131C16.2341 17.2385 16.1763 17.2513 16.1179 17.2504H7.88245C7.82404 17.2513 7.76625 17.2385 7.71366 17.2131C7.66107 17.1877 7.61514 17.1503 7.57953 17.104C7.54393 17.0577 7.51964 17.0038 7.50859 16.9464C7.49753 16.8891 7.50003 16.8299 7.51588 16.7737ZM15.3754 12.0004C15.1529 12.0004 14.9354 11.9344 14.7504 11.8108C14.5654 11.6872 14.4212 11.5115 14.3361 11.3059C14.2509 11.1004 14.2286 10.8742 14.272 10.6559C14.3154 10.4377 14.4226 10.2373 14.5799 10.0799C14.7373 9.92259 14.9377 9.81544 15.1559 9.77203C15.3742 9.72862 15.6004 9.7509 15.8059 9.83605C16.0115 9.9212 16.1872 10.0654 16.3108 10.2504C16.4344 10.4354 16.5004 10.6529 16.5004 10.8754C16.5008 11.0233 16.4719 11.1697 16.4155 11.3064C16.3591 11.443 16.2763 11.5672 16.1717 11.6717C16.0672 11.7763 15.943 11.8591 15.8064 11.9155C15.6697 11.9719 15.5233 12.0008 15.3754 12.0004Z" fill="#473B37"/>
</g>
</svg>
