<svg width="100" height="10" viewBox="0 0 100 10" fill="none" xmlns="http://www.w3.org/2000/svg">
<g id="Layer_1" clip-path="url(#clip0_337_12631)">
<path id="Vector" d="M9.91246 9.8301H5.30144V9.17476C5.69597 9.17476 5.97953 9.15049 6.15214 9.08981C6.32474 9.02913 6.42338 8.90777 6.42338 8.70146C6.42338 8.55583 6.39872 8.41019 6.33707 8.26456L5.86857 7.12379H2.68771L2.45346 7.75485C2.31784 8.1068 2.2562 8.36165 2.2562 8.51942C2.2562 8.79854 2.36716 8.98058 2.58908 9.06553C2.811 9.15049 3.06991 9.17476 3.37813 9.17476V9.8301H0V9.17476C0.271237 9.17476 0.493157 9.12621 0.69042 9.02913C0.887683 8.93204 1.06029 8.73786 1.23289 8.45874C1.4055 8.17961 1.59043 7.79126 1.7877 7.28155L4.59869 0H5.28911L8.27272 7.51214C8.49464 8.04612 8.64258 8.39806 8.75354 8.59223C8.8645 8.78641 9.00012 8.9199 9.17273 9.02913C9.34533 9.13835 9.60424 9.18689 9.92479 9.18689V9.84223L9.91246 9.8301ZM5.60967 6.44417L4.25348 3.08252L2.97127 6.44417H5.60967Z" fill="#2C2927"/>
<path id="Vector_2" d="M20.9962 9.83016H18.3701C18.2715 9.72094 18.1605 9.57531 18.0126 9.369C17.8646 9.16268 17.7167 8.9321 17.5441 8.66511C17.3715 8.39812 17.2359 8.17968 17.1249 7.99764L16.4591 6.91754C16.1633 6.4321 15.9413 6.10443 15.7811 5.92239C15.6208 5.74036 15.4605 5.63113 15.2632 5.58259C15.066 5.53404 14.7331 5.50977 14.2646 5.50977H13.8947V8.02191C13.8947 8.2889 13.9194 8.49521 13.981 8.66511C14.0427 8.83502 14.1783 8.94424 14.3879 9.02919C14.5975 9.11414 14.918 9.16269 15.3249 9.16269V9.81802H10.418V9.16269C11.0098 9.16269 11.4043 9.07773 11.5646 8.90783C11.7248 8.73793 11.8235 8.44667 11.8235 8.02191V1.95395C11.8235 1.54133 11.7372 1.25006 11.5769 1.08016C11.4166 0.910257 11.0221 0.825306 10.418 0.825306V0.145694L12.6865 0.0728785C12.8591 0.0728785 13.0564 0.0607426 13.2783 0.0486066C13.5002 0.0364707 13.7098 0.0486066 13.9071 0.0486066C14.055 0.0486066 14.3016 0.0486066 14.6468 0.0607426C15.1276 0.0728785 15.5838 0.109286 16.0153 0.145694C16.4468 0.182102 16.7797 0.242781 17.0139 0.303461C17.3715 0.388412 17.7167 0.546179 18.0373 0.75249C18.3578 0.958801 18.629 1.23793 18.8263 1.57773C19.0236 1.91754 19.1345 2.31802 19.1345 2.76705C19.1345 3.09472 19.0606 3.39812 18.9249 3.70152C18.7893 4.00492 18.5551 4.27191 18.2345 4.51463C17.914 4.75734 17.5071 4.93938 16.9893 5.07288C17.3468 5.27919 17.6427 5.53404 17.8893 5.82531C18.1359 6.11657 18.5181 6.67482 19.0482 7.48793C19.3564 7.94909 19.603 8.30103 19.8003 8.53162C19.9976 8.7622 20.1825 8.91997 20.3428 9.00492C20.503 9.08987 20.725 9.13841 20.9715 9.16269V9.81802L20.9962 9.83016ZM16.94 2.75492C16.94 1.99035 16.7057 1.48065 16.2249 1.22579C15.7441 0.970937 15.1276 0.849578 14.3632 0.849578C14.2523 0.849578 14.1783 0.849578 14.1166 0.849578C14.055 0.849578 13.9934 0.849578 13.9071 0.849578V4.72094H14.3632C15.0906 4.72094 15.6948 4.59958 16.2002 4.369C16.7057 4.13841 16.94 3.5923 16.94 2.74278V2.75492Z" fill="#2C2927"/>
<path id="Vector_3" d="M30.255 2.92485H29.5646C29.5029 2.33019 29.3673 1.88116 29.1577 1.60203C28.9481 1.32291 28.7385 1.14087 28.492 1.08019C28.2454 1.01951 27.9865 0.9831 27.6782 0.9831H26.433V8.04621C26.433 8.32533 26.4577 8.54378 26.5193 8.70155C26.581 8.85931 26.7166 8.98067 26.9262 9.06562C27.1358 9.15058 27.444 9.19912 27.8632 9.19912V9.85446H22.9563V9.19912C23.5604 9.19912 23.9426 9.11417 24.1152 8.94427C24.2878 8.77436 24.3741 8.4831 24.3741 8.05834V0.970964H23.3385C22.9316 0.970964 22.5864 1.00737 22.3152 1.06805C22.0439 1.12873 21.8097 1.31077 21.6001 1.5899C21.3905 1.86902 21.2795 2.31805 21.2549 2.91271H20.5645V0.182129H30.2427V2.92485H30.255Z" fill="#2C2927"/>
<path id="Vector_4" d="M46.16 9.83019H41.3394V9.17485C41.7339 9.17485 42.0298 9.1263 42.2394 9.04135C42.449 8.9564 42.5723 8.83504 42.6339 8.67727C42.6956 8.51951 42.7202 8.30106 42.7202 8.03407V5.14572H38.1709V8.03407C38.1709 8.43456 38.2572 8.72582 38.4298 8.89572C38.6024 9.06562 38.9846 9.16271 39.5887 9.16271V9.81805H34.7311V9.16271C35.1256 9.16271 35.4215 9.11417 35.6188 9.02922C35.816 8.94427 35.9516 8.82291 36.0133 8.66514C36.0749 8.50737 36.0996 8.28893 36.0996 8.02193V1.97825C36.0996 1.71126 36.0749 1.49281 36.0133 1.34718C35.9516 1.20155 35.8284 1.06805 35.6311 0.9831C35.4338 0.898148 35.1256 0.849605 34.7188 0.849605V0.182129H39.5763V0.837469C38.9846 0.837469 38.59 0.92242 38.4298 1.10446C38.2695 1.2865 38.1709 1.56562 38.1709 1.97825V4.35689H42.7202V1.97825C42.7202 1.71126 42.6956 1.49281 42.6463 1.34718C42.5969 1.20155 42.4737 1.06805 42.2764 0.9831C42.0791 0.898148 41.7709 0.849605 41.364 0.849605V0.182129H46.1847V0.837469C45.7778 0.837469 45.4696 0.886012 45.2723 0.970964C45.0751 1.05592 44.9518 1.17727 44.8901 1.33504C44.8285 1.49281 44.8038 1.69912 44.8038 1.96611V8.02193C44.8038 8.27679 44.8285 8.49524 44.8778 8.64087C44.9271 8.7865 45.0504 8.91999 45.26 9.01708C45.4696 9.11417 45.7655 9.16271 46.1723 9.16271V9.81805L46.16 9.83019Z" fill="#2C2927"/>
<path id="Vector_5" d="M57.391 0.837469C56.9471 0.837469 56.6389 0.886012 56.454 0.9831C56.269 1.08019 56.1457 1.22582 56.1088 1.40786C56.0718 1.5899 56.0471 1.88116 56.0471 2.25737V5.8132C56.0471 6.46854 56.0225 6.95397 55.9731 7.29378C55.9238 7.63359 55.8005 7.96126 55.6033 8.28893C55.2334 8.94427 54.7279 9.38116 54.0622 9.62388C53.3964 9.8666 52.7676 9.98795 52.1635 9.98795C51.7197 9.98795 51.2512 9.92727 50.7827 9.81805C50.3142 9.70883 49.8703 9.51465 49.4511 9.24766C49.032 8.98067 48.7361 8.62873 48.5141 8.20397C48.4032 7.96126 48.3045 7.73067 48.2429 7.48795C48.1813 7.24524 48.1443 7.02679 48.1319 6.80834C48.1196 6.5899 48.1196 6.32291 48.1196 5.9831V1.97825C48.1073 1.56562 48.021 1.26223 47.8607 1.09232C47.7004 0.92242 47.3059 0.837469 46.6895 0.837469V0.182129H51.6334V0.837469C51.2142 0.837469 50.9059 0.873877 50.6964 0.958828C50.4868 1.04378 50.3511 1.16514 50.2895 1.31077C50.2279 1.4564 50.1909 1.68698 50.1909 1.96611V5.9831C50.1909 6.39572 50.2155 6.7598 50.2525 7.0632C50.2895 7.3666 50.3511 7.64572 50.4498 7.8763C50.6101 8.26465 50.8936 8.56805 51.2881 8.79863C51.6827 9.02922 52.1142 9.13844 52.5827 9.13844C53.0882 9.13844 53.5567 9.01708 54.0005 8.77436C54.4444 8.53164 54.7403 8.21611 54.9129 7.82776C55.0485 7.52436 55.1348 7.20883 55.1718 6.88116C55.2087 6.55349 55.2334 6.16514 55.2334 5.71611V2.26951C55.2334 1.95397 55.2334 1.72339 55.2087 1.57776C55.1841 1.43213 55.1348 1.2865 55.0485 1.17727C54.9622 1.06805 54.8142 0.970964 54.617 0.92242C54.4197 0.873877 54.1361 0.849605 53.7909 0.849605V0.182129H57.391V0.837469Z" fill="#2C2927"/>
<path id="Vector_6" d="M68.6468 0.837469C68.1783 0.837469 67.8454 0.886012 67.6482 0.970964C67.4509 1.05592 67.3153 1.20155 67.2783 1.38359C67.2413 1.56562 67.2043 1.85689 67.2043 2.26951V9.91514H66.5386L60.1275 2.41514V7.73067C60.1275 8.13116 60.1522 8.42242 60.2015 8.60446C60.2508 8.7865 60.3864 8.93213 60.5837 9.02922C60.781 9.1263 61.1262 9.17485 61.5823 9.17485V9.83019H57.9453V9.17485C58.3768 9.17485 58.6974 9.1263 58.8823 9.02922C59.0672 8.93213 59.2029 8.7865 59.2398 8.60446C59.2768 8.42242 59.3138 8.13116 59.3138 7.73067V2.80349C59.3138 2.403 59.3138 2.11174 59.2768 1.90543C59.2399 1.69912 59.2029 1.52922 59.1166 1.38359C59.0303 1.23795 58.907 1.11659 58.7097 1.01951C58.5124 0.92242 58.2659 0.861741 57.9453 0.825333V0.182129H60.7933L66.366 6.66271V2.26951C66.366 1.90543 66.3413 1.63844 66.292 1.44427C66.2427 1.25009 66.1194 1.10446 65.9221 0.995236C65.7249 0.886012 65.4043 0.837469 64.9728 0.837469V0.182129H68.6222V0.837469H68.6468Z" fill="#2C2927"/>
<path id="Vector_7" d="M78.9542 2.92485H78.2638C78.2021 2.33019 78.0665 1.88116 77.8569 1.60203C77.6473 1.32291 77.4378 1.14087 77.1912 1.08019C76.9446 1.01951 76.6857 0.9831 76.3775 0.9831H75.1322V8.04621C75.1322 8.32533 75.1569 8.54378 75.2185 8.70155C75.2802 8.85931 75.4158 8.98067 75.6254 9.06562C75.835 9.15058 76.1432 9.19912 76.5624 9.19912V9.85446H71.6555V9.19912C72.2596 9.19912 72.6418 9.11417 72.8144 8.94427C72.987 8.77436 73.0733 8.4831 73.0733 8.05834V0.970964H72.0377C71.6308 0.970964 71.2856 1.00737 71.0144 1.06805C70.7431 1.12873 70.5089 1.31077 70.2993 1.5899C70.0897 1.86902 69.9788 2.31805 69.9541 2.91271H69.2637V0.182129H78.9419V2.92485H78.9542Z" fill="#2C2927"/>
<path id="Vector_8" d="M88.5086 6.65058L88.4346 9.81805H79.7057V9.16271C80.3098 9.16271 80.692 9.07776 80.8646 8.90786C81.0372 8.73796 81.1235 8.44669 81.1235 8.02193V1.97825C81.1235 1.69912 81.0989 1.49281 81.0372 1.33504C80.9756 1.17727 80.8523 1.05592 80.6427 0.970964C80.4331 0.886012 80.1249 0.837469 79.6934 0.837469V0.182129H87.8181L87.9537 2.68213H87.288C87.14 2.12388 86.9674 1.73553 86.7702 1.49281C86.5729 1.25009 86.351 1.10446 86.1167 1.05592C85.8825 1.00737 85.5126 0.970964 85.0195 0.970964H83.1825V4.38116H84.1811C84.5263 4.38116 84.7729 4.35689 84.9455 4.29621C85.1181 4.23553 85.2291 4.1263 85.303 3.9564C85.377 3.7865 85.414 3.53164 85.4386 3.1797H86.1291V6.38359H85.4633C85.4386 6.03164 85.4017 5.76465 85.3154 5.59475C85.229 5.42485 85.1181 5.31562 84.9455 5.25494C84.7729 5.19426 84.5263 5.16999 84.1811 5.16999H83.1701V7.43941C83.1701 7.81562 83.1701 8.09475 83.1948 8.27679C83.2194 8.45883 83.2688 8.59232 83.3551 8.71368C83.4414 8.83504 83.577 8.91999 83.7619 8.96854C83.9468 9.01708 84.2181 9.04135 84.5756 9.04135H85.3647C85.6975 9.04135 86.0181 9.00494 86.314 8.91999C86.6099 8.83504 86.9058 8.62873 87.2017 8.27679C87.4976 7.92485 87.6948 7.39087 87.8058 6.66271H88.4839L88.5086 6.65058Z" fill="#2C2927"/>
<path id="Vector_9" d="M100 9.83016H97.374C97.2754 9.72094 97.1645 9.57531 97.0165 9.369C96.8686 9.16268 96.7206 8.9321 96.548 8.66511C96.3754 8.39812 96.2398 8.17968 96.1288 7.99764L95.4631 6.91754C95.1672 6.4321 94.9452 6.10443 94.785 5.92239C94.6247 5.74036 94.4644 5.63113 94.2671 5.58259C94.0699 5.53404 93.737 5.50977 93.2685 5.50977H92.8986V8.02191C92.8986 8.2889 92.9233 8.49521 92.9849 8.66511C93.0466 8.83502 93.1822 8.94424 93.3918 9.02919C93.6014 9.11414 93.9219 9.16269 94.3288 9.16269V9.81802H89.4219V9.16269C90.0137 9.16269 90.4082 9.07773 90.5685 8.90783C90.7287 8.73793 90.8274 8.44667 90.8274 8.02191V1.95395C90.8274 1.54133 90.7411 1.25006 90.5808 1.08016C90.4205 0.910257 90.026 0.825306 89.4219 0.825306V0.145694L91.6904 0.0728785C91.863 0.0728785 92.0603 0.0607426 92.2822 0.0486066C92.5041 0.0364707 92.7137 0.0486066 92.911 0.0486066C93.0589 0.0486066 93.3055 0.0486066 93.6507 0.0607426C94.1315 0.0728785 94.5877 0.109286 95.0192 0.145694C95.4507 0.182102 95.7836 0.242781 96.0179 0.303461C96.3754 0.388412 96.7206 0.546179 97.0412 0.75249C97.3617 0.958801 97.6329 1.23793 97.8302 1.57773C98.0275 1.91754 98.1384 2.31802 98.1384 2.76705C98.1384 3.09472 98.0645 3.39812 97.9288 3.70152C97.7932 4.00492 97.559 4.27191 97.2384 4.51463C96.9179 4.75734 96.511 4.93938 95.9932 5.07288C96.3507 5.27919 96.6466 5.53404 96.8932 5.82531C97.1398 6.11657 97.522 6.67482 98.0521 7.48793C98.3604 7.94909 98.6069 8.30103 98.8042 8.53162C99.0015 8.7622 99.1864 8.91997 99.3467 9.00492C99.5069 9.08987 99.7289 9.13841 99.9754 9.16269V9.81802L100 9.83016ZM95.9439 2.75492C95.9439 1.99035 95.7096 1.48065 95.2288 1.22579C94.748 0.970937 94.1315 0.849578 93.3671 0.849578C93.2562 0.849578 93.1822 0.849578 93.1206 0.849578C93.0589 0.849578 92.9973 0.849578 92.911 0.849578V4.72094H93.3671C94.0945 4.72094 94.6987 4.59958 95.2041 4.369C95.7096 4.13841 95.9439 3.5923 95.9439 2.74278V2.75492Z" fill="#2C2927"/>
</g>
<defs>
<clipPath id="clip0_337_12631">
<rect width="100" height="10" fill="white"/>
</clipPath>
</defs>
</svg>
