<svg width="32" height="32" viewBox="0 0 32 32" fill="none" xmlns="http://www.w3.org/2000/svg">
<path d="M16.0003 2.66669C10.8403 2.66669 6.66699 6.84002 6.66699 12C6.66699 19 16.0003 29.3334 16.0003 29.3334C16.0003 29.3334 25.3337 19 25.3337 12C25.3337 6.84002 21.1603 2.66669 16.0003 2.66669ZM16.0003 15.3334C15.1163 15.3334 14.2684 14.9822 13.6433 14.357C13.0182 13.7319 12.667 12.8841 12.667 12C12.667 11.116 13.0182 10.2681 13.6433 9.643C14.2684 9.01788 15.1163 8.66669 16.0003 8.66669C16.8844 8.66669 17.7322 9.01788 18.3573 9.643C18.9825 10.2681 19.3337 11.116 19.3337 12C19.3337 12.8841 18.9825 13.7319 18.3573 14.357C17.7322 14.9822 16.8844 15.3334 16.0003 15.3334Z" fill="#534C49"/>
</svg>
