<svg width="69" height="69" viewBox="0 0 69 69" fill="none" xmlns="http://www.w3.org/2000/svg">
<path d="M7.1875 11.5C7.1875 10.7375 7.4904 10.0062 8.02957 9.46707C8.56873 8.9279 9.3 8.625 10.0625 8.625H27.3125L34.5 17.25H58.9375C59.7 17.25 60.4313 17.5529 60.9704 18.0921C61.5096 18.6312 61.8125 19.3625 61.8125 20.125V57.5C61.8125 58.2625 61.5096 58.9938 60.9704 59.5329C60.4313 60.0721 59.7 60.375 58.9375 60.375H10.0625C9.3 60.375 8.56873 60.0721 8.02957 59.5329C7.4904 58.9938 7.1875 58.2625 7.1875 57.5V11.5Z" stroke="#534C49" stroke-width="4" stroke-linejoin="round"/>
<path d="M27.3125 31.625L41.6875 46M41.6875 31.625L27.3125 46" stroke="#534C49" stroke-width="4" stroke-linecap="round" stroke-linejoin="round"/>
</svg>
