<svg width="23" height="24" viewBox="0 0 23 24" fill="none" xmlns="http://www.w3.org/2000/svg">
<path d="M4.68266 10C3.65246 10 2.80957 10.9 2.80957 12C2.80957 13.1 3.65246 14 4.68266 14C5.71286 14 6.55576 13.1 6.55576 12C6.55576 10.9 5.71286 10 4.68266 10ZM17.7943 10C16.7641 10 15.9212 10.9 15.9212 12C15.9212 13.1 16.7641 14 17.7943 14C18.8245 14 19.6674 13.1 19.6674 12C19.6674 10.9 18.8245 10 17.7943 10ZM11.2385 10C10.2083 10 9.3654 10.9 9.3654 12C9.3654 13.1 10.2083 14 11.2385 14C12.2687 14 13.1116 13.1 13.1116 12C13.1116 10.9 12.2687 10 11.2385 10Z" fill="#534C49"/>
</svg>
