<svg width="77" height="20" viewBox="0 0 77 20" fill="none" xmlns="http://www.w3.org/2000/svg">
<path d="M1.5 8.75C0.809644 8.75 0.25 9.30964 0.25 10C0.25 10.6904 0.809644 11.25 1.5 11.25L1.5 8.75ZM76.3839 10.8839C76.872 10.3957 76.872 9.60428 76.3839 9.11612L68.4289 1.16117C67.9408 0.673016 67.1493 0.673016 66.6612 1.16117C66.173 1.64933 66.173 2.44078 66.6612 2.92894L73.7322 10L66.6612 17.0711C66.173 17.5592 66.173 18.3507 66.6612 18.8388C67.1493 19.327 67.9408 19.327 68.4289 18.8388L76.3839 10.8839ZM1.5 11.25L75.5 11.25L75.5 8.75001L1.5 8.75L1.5 11.25Z" fill="#2C2927"/>
</svg>
